<svg width="25" height="12" viewBox="0 0 25 12" fill="none" xmlns="http://www.w3.org/2000/svg">
<path d="M0.79834 6.00975C0.79834 5.70722 0.866263 5.4457 0.963519 5.26872C1.06575 5.08269 1.16635 5.0415 1.2178 5.0415H18.5154V6.97799H1.2178C1.16635 6.97799 1.06575 6.9368 0.963519 6.75077C0.866263 6.57379 0.79834 6.31228 0.79834 6.00975Z" fill="white" stroke="black" stroke-width="0.5"/>
<path d="M22.9744 6.65447L17.1897 10.0929C16.6898 10.3901 16.0565 10.0298 16.0565 9.4482L16.0565 2.57133C16.0565 1.98974 16.6898 1.62946 17.1897 1.92662L22.9744 5.36506C23.4635 5.65575 23.4635 6.36378 22.9744 6.65447Z" fill="white" stroke="black" stroke-width="0.5"/>
<rect x="15.7808" y="5.28369" width="0.909625" height="1.45177" fill="white"/>
</svg>
