<svg width="13" height="25" viewBox="0 0 13 25" fill="none" xmlns="http://www.w3.org/2000/svg">
<path d="M6.68312 1.08643C6.98566 1.08643 7.24717 1.15435 7.42415 1.2516C7.61018 1.35383 7.65137 1.45444 7.65137 1.50589L7.65137 18.8035L5.71488 18.8035L5.71488 1.50589C5.71488 1.45444 5.75607 1.35383 5.9421 1.2516C6.11908 1.15435 6.38059 1.08643 6.68312 1.08643Z" fill="white" stroke="black" stroke-width="0.5"/>
<path d="M6.0384 23.2625L2.59997 17.4778C2.3028 16.9778 2.66308 16.3446 3.24467 16.3446L10.1215 16.3446C10.7031 16.3446 11.0634 16.9778 10.7662 17.4778L7.32781 23.2625C7.03712 23.7516 6.32909 23.7516 6.0384 23.2625Z" fill="white" stroke="black" stroke-width="0.5"/>
<rect x="7.40918" y="16.0688" width="0.909625" height="1.45177" transform="rotate(90 7.40918 16.0688)" fill="white"/>
</svg>
